<?xml version="1.0" encoding="utf-8"?>
<!-- Generator: Adobe Illustrator 23.0.1, SVG Export Plug-In . SVG Version: 6.00 Build 0)  -->
<svg version="1.1" id="Layer_1" xmlns="http://www.w3.org/2000/svg" xmlns:xlink="http://www.w3.org/1999/xlink" x="0px" y="0px"
	 viewBox="0 0 1000 1000" style="enable-background:new 0 0 1000 1000;" xml:space="preserve">
<style type="text/css">
	.st0{fill:#323237;}
</style>
<g>
	<path class="st0" d="M501.5,25.3C513,44.6,522.3,65,533.7,84.4c7.9,13.6,17.2,26.5,27.7,38.2c24.8,27,57.7,44.7,84,70.1
		c9.8,9.3,18.3,20,25.7,31.4c13,20.4,20.1,44,23.8,67.8c-15.3,0-30.5,0-45.8,0c-6-34.8-28.9-64.8-57.3-84.8
		c-34.4-23.9-67.1-51.6-90.4-86.7c-11.3,17.9-25.1,34.3-40.7,48.6c-17,15.9-37.2,28-55,43.1c-18.9,15.7-36.5,34.4-45,57.9
		c-2.3,6.5-4,13.3-4.7,20.1c-3.3,44.3-0.7,88.7-1.5,133c18-0.3,36,0,54,0c-0.2,14.8-0.2,29.6,0,44.4c-33.3,0.1-66.6,0.3-100-0.1
		c1.1-55.4-0.1-110.8,0.8-166.2c0.5-33.2,13.4-65.6,33.8-91.6c17.8-22.7,41.9-39.1,64.6-56.4c12.6-9.6,25.2-19.4,35.6-31.5
		C468.5,93.3,484.3,58.6,501.5,25.3z"/>
	<path class="st0" d="M202.7,348.8c24.8-22.8,57.1-37.5,90.7-40.7c-0.1,14.8,0.1,29.6,0.2,44.5c-29.3,6.3-56.9,22.1-75.5,45.8
		c-17.2,22.6-33.8,45.9-53.5,66.4c-12.8,13.5-27.2,25.5-43,35.3c32.3,19.3,56.4,48.8,78.9,78.3c10.7,13.5,20.1,28.3,33.2,39.7
		c20.2,18,46.8,29.6,74.1,29.2c38.9,0.5,77.8,0.3,116.6,0.5c-0.2-18.3-0.3-36.5-0.4-54.8c15.2-0.4,30.5,0,45.7,0
		c0,32.9,0,65.9,0,98.8c-54.3,0.4-108.7,0-163,0.2c-38.4,1.1-76.1-15.1-104.2-40.8c-26.9-24.3-44.3-56.7-69-82.9
		c-9-9.8-19.5-18.1-30.3-25.7c-24.1-16.8-51.4-28-76.6-42.9c20-10.7,40.5-20.3,59.9-31.9c19.2-11.4,37.6-24.8,52.1-41.9
		C160.8,400.9,177.8,371.4,202.7,348.8z"/>
	<path class="st0" d="M370.1,352.3c0.3-14.8,0.1-29.6,0.4-44.4c33.1,0.4,66.2,0.1,99.3,0.3c0.1,57.3,0.1,114.6,0.3,171.9
		c-0.1,12.2,0.2,24.4-0.1,36.6c-15.3,0.2-30.6,0.1-45.9,0.1c0.4-54.8-0.2-109.6,0.4-164.4C406.4,352.4,388.3,352.6,370.1,352.3z"/>
	<path class="st0" d="M533.9,308.1c54.3,0,108.7,0,163,0c37.5-1.4,74.3,14.3,102.3,38.7c27.6,24.3,45.4,57.1,70.3,83.8
		c18.3,19.9,41.4,34.3,64.9,47.2c14.3,7.7,28.9,14.8,43.5,21.9c0,0.2-0.1,0.6-0.2,0.7c-32.9,16.5-67,32.1-95,56.4
		c-31.9,27.6-50.6,66.9-81.9,95.1c-24.7,22.4-56.6,36.7-89.7,40.3c-1.3-15-1.5-30.1-0.4-45.1c31.3-5.9,59.4-24.5,78.6-49.6
		c16-21.6,31.7-43.4,50.4-62.8c12.8-13.3,27.1-25.3,43.1-34.7c-24.9-14.5-45.3-35.4-63.2-57.6c-11.1-13.7-21.4-27.9-32.1-41.9
		c-17.8-22.7-43-40.3-71.6-45.8c-11-2.3-22.2-1.8-33.4-2c-34.4-0.3-68.8-0.1-103.2,0.1c0.5,18,0.7,35.9,0.8,53.9
		c-15.5,0.3-30.9,0.7-46.3,0.4C534.1,374,533.8,341.1,533.9,308.1z"/>
	<path class="st0" d="M648.9,368.5c15.3,0,30.7,0.1,46,0c0.3,33-0.2,65.9,0.2,98.9c-70,0.5-139.9,0.2-209.9,0.1
		c0.1-14.8,0.2-29.7,0.4-44.5c54.5-0.1,109,0.1,163.5-0.1C649,404.7,649,386.6,648.9,368.5z"/>
	<path class="st0" d="M533.9,483.5c15.3,0,30.6,0,45.9,0c0.1,54.6,0.8,109.3-0.5,163.9c17.9,0.4,35.8,0.6,53.8-0.2
		c0.8,14.9,0.9,29.9,0.6,44.9c-33.2,0.1-66.5,0-99.7,0C534.1,622.6,533.8,553,533.9,483.5z"/>
	<path class="st0" d="M308.9,532.7c69.8,0,139.5-0.2,209.2-0.1c0.4,14.8,0.7,29.7,0.4,44.5c-54.6,0.4-109.2,0.1-163.9,0.2
		c-0.3,18.1-0.2,36.3,0.1,54.4c-15.2,0-30.5,0.1-45.7-0.1C309.1,598.6,309.4,565.6,308.9,532.7z"/>
	<path class="st0" d="M594.5,533.7c33.6-2,67.2-1.1,100.8-0.5c-1,52.6,0.1,105.2-0.3,157.8c0.4,35.9-12,71.8-34.4,99.8
		c-25.3,32.1-62.7,51-91.8,79.1c-17.3,16.8-30.7,37-42.1,58.1c-8.5,15.5-16.2,31.4-25.1,46.7c-19.2-36.6-36.6-75.5-66.5-105
		c-23.7-22.7-52.4-39.3-76.1-62c-10.8-10.1-20.1-21.7-27.7-34.3c-12-19.8-18.7-42.4-22.2-65.2c15.3-0.2,30.6-0.2,45.9,0
		c6,31,23.5,60,49.3,78.4c26.1,20,53.2,39.2,75.3,63.7c8.2,9.1,15.6,18.9,21.9,29.4c16.8-24.1,36.8-46.2,60-64.2
		c9.2-7.1,19-13.4,28.1-20.6c14.4-11.1,28.2-23.4,39-38.1c10.1-13.7,17.4-29.8,19.3-46.8c2.4-44.2,0.3-88.5,1.2-132.7
		c-18-0.1-36-0.4-54-0.1C595.2,562.7,594.9,548.2,594.5,533.7z"/>
</g>
</svg>
